<svg xmlns="http://www.w3.org/2000/svg" version="1.1" viewBox="0.00 0.00 1000.00 1001.00">
<path fill="#ffffff" d="   M 1000.00 489.06   L 1000.00 512.51   Q 998.44 542.76 997.16 554.38   Q 990.05 618.79 968.15 676.54   Q 946.74 733.00 909.11 787.78   Q 890.74 814.52 867.57 839.30   C 814.54 896.03 752.28 939.79 679.99 967.55   Q 649.72 979.17 626.29 984.62   Q 621.69 985.69 606.54 989.26   Q 589.61 993.24 582.51 994.25   Q 545.81 999.48 508.74 1001.00   L 491.67 1001.00   Q 469.70 1000.10 447.80 998.07   C 417.24 995.24 386.64 988.54 357.33 980.13   Q 326.11 971.18 298.12 958.15   C 247.58 934.62 201.37 906.32 162.41 869.40   Q 138.60 846.84 115.86 819.70   Q 30.48 717.86 8.28 586.64   Q 1.81 548.37 0.41 511.50   C -0.35 491.61 1.18 470.83 2.92 450.45   C 11.57 349.13 55.39 253.37 120.42 175.03   Q 126.54 167.66 133.54 160.35   C 177.99 113.92 230.15 74.17 288.11 47.53   C 328.76 28.84 370.12 14.84 411.92 8.01   Q 445.85 2.46 487.44 0.59   Q 531.50 -1.39 577.77 6.09   Q 636.96 15.66 687.32 36.23   Q 712.75 46.62 741.98 62.81   Q 855.96 125.91 925.51 237.95   C 950.27 277.84 969.29 320.07 980.96 364.04   Q 990.80 401.12 994.27 423.99   Q 997.99 448.51 1000.00 489.06   Z   M 480.53 168.77   L 463.30 168.77   Q 462.67 168.77 463.00 169.30   Q 481.22 199.17 501.36 229.36   A 0.28 0.28 0.0 0 0 501.83 229.35   L 539.67 169.44   A 0.44 0.44 0.0 0 0 539.30 168.77   L 521.00 168.73   A 0.98 0.97 90.0 0 1 520.03 167.75   L 520.03 87.30   Q 520.03 86.73 519.46 86.70   Q 501.72 85.90 482.36 86.61   Q 481.82 86.63 481.81 87.16   Q 481.67 92.83 481.65 97.54   Q 481.55 131.24 481.31 160.97   Q 481.28 164.19 481.18 168.14   Q 481.16 168.77 480.53 168.77   Z   M 196.33 475.63   Q 197.42 490.38 198.56 504.57   C 198.79 507.51 199.34 510.32 199.50 513.29   C 199.61 515.26 198.49 516.79 197.05 517.91   Q 185.24 527.04 172.63 537.36   C 169.70 539.76 166.35 541.59 163.68 544.30   C 161.67 546.33 163.40 552.12 163.53 554.86   Q 164.13 567.47 164.94 578.98   A 0.28 0.27 69.1 0 0 165.38 579.18   C 185.14 564.28 205.00 548.09 224.09 533.07   Q 226.65 531.05 230.22 528.93   Q 294.21 490.85 362.72 450.65   Q 377.03 442.25 391.60 434.28   A 0.59 0.58 58.9 0 1 392.37 434.48   Q 402.22 449.73 411.46 466.04   A 0.62 0.61 -32.5 0 1 411.28 466.83   L 277.64 561.58   Q 277.36 561.78 277.65 561.94   L 284.77 566.05   Q 284.99 566.18 285.21 566.07   Q 371.08 521.83 457.69 478.61   Q 458.47 478.22 458.42 479.08   C 458.34 480.64 458.95 482.02 459.68 483.37   Q 469.53 501.58 478.45 520.22   A 0.66 0.65 -27.2 0 1 478.17 521.08   Q 415.80 555.26 354.26 589.45   Q 335.59 599.82 312.59 612.96   Q 312.40 613.07 312.46 613.29   L 314.31 619.30   Q 314.37 619.49 314.55 619.42   L 475.88 555.20   A 0.81 0.81 0.0 0 1 476.94 555.69   L 492.19 598.96   Q 492.45 599.69 491.75 600.04   C 450.22 620.93 408.90 640.85 364.31 662.62   Q 347.87 670.64 332.38 678.54   Q 332.04 678.71 332.15 679.08   L 334.18 685.77   A 0.26 0.25 71.6 0 0 334.51 685.94   Q 409.79 659.40 482.37 632.67   A 0.55 0.54 73.2 0 1 483.09 633.06   L 491.52 669.97   Q 491.69 670.70 491.02 671.06   Q 428.52 704.79 364.36 738.86   C 352.05 745.40 339.76 751.32 327.49 756.15   C 290.45 770.73 253.15 786.10 217.19 800.63   A 0.37 0.37 0.0 0 0 217.04 801.19   Q 219.25 804.20 222.08 806.66   Q 233.99 817.04 244.62 825.42   C 295.39 865.44 355.17 894.33 418.14 906.33   Q 453.46 913.07 492.98 914.25   Q 510.79 914.79 530.33 913.22   Q 561.38 910.73 590.74 904.39   Q 656.09 890.26 713.16 855.81   Q 714.21 855.18 712.99 855.15   L 659.51 854.12   A 1.78 1.77 73.7 0 1 658.04 853.31   Q 638.12 822.53 618.49 790.91   Q 614.61 784.65 610.05 777.99   Q 609.01 776.47 608.68 774.33   Q 608.61 773.85 609.08 773.74   L 649.45 764.01   Q 649.95 763.89 650.32 764.24   Q 664.27 777.37 678.29 790.69   C 681.77 793.99 685.44 798.20 689.20 801.78   Q 690.68 803.20 692.49 803.50   A 1.60 1.57 -53.4 0 0 693.52 803.34   C 695.72 802.20 697.92 801.06 700.22 800.15   Q 719.29 792.59 738.90 783.96   Q 739.87 783.53 738.90 783.11   C 712.76 771.89 684.73 758.80 657.05 747.54   Q 654.36 746.44 652.19 744.47   C 605.80 702.30 560.05 659.90 513.04 618.12   Q 509.87 615.31 507.09 611.74   Q 506.78 611.33 507.00 610.87   Q 510.95 602.38 516.35 589.56   Q 517.98 585.68 519.91 582.01   Q 520.07 581.72 520.36 581.90   Q 580.46 620.46 641.75 660.04   Q 653.89 667.88 666.60 676.41   A 0.65 0.65 0.0 0 0 667.60 676.00   L 669.25 667.31   Q 669.38 666.67 668.87 666.27   Q 619.82 628.04 569.29 589.16   Q 540.49 567.00 512.34 544.41   Q 511.95 544.09 512.21 543.66   Q 522.73 526.54 534.20 510.40   Q 534.69 509.72 535.40 510.16   Q 618.02 561.21 705.10 616.61   Q 708.25 618.61 711.54 619.93   Q 712.13 620.17 712.48 619.65   Q 713.24 618.53 714.26 617.75   Q 715.08 617.13 714.36 616.40   C 711.59 613.55 708.22 611.49 705.09 609.05   Q 636.80 555.83 568.97 501.95   A 0.66 0.66 0.0 0 1 568.89 500.99   Q 580.20 488.43 591.39 476.03   Q 594.40 472.70 598.00 469.59   Q 598.45 469.21 598.93 469.56   L 750.09 578.91   Q 750.94 579.53 751.49 578.64   Q 752.22 577.48 753.35 576.87   A 0.50 0.49 54.7 0 0 753.48 576.10   C 751.61 574.10 749.74 571.99 747.66 570.19   Q 691.64 521.45 635.67 472.71   Q 630.91 468.57 625.25 464.04   A 1.08 1.08 0.0 0 1 625.14 462.46   Q 635.46 451.55 645.69 438.09   Q 646.82 436.59 648.52 436.42   Q 649.03 436.37 649.47 436.63   C 652.22 438.28 654.66 440.32 657.32 442.11   Q 715.50 481.27 773.69 520.34   C 785.71 528.41 797.45 536.94 808.26 546.29   Q 852.08 584.21 894.79 621.50   A 1.16 1.15 -60.5 0 0 896.64 620.98   Q 904.29 597.13 908.32 572.47   C 920.43 498.35 914.50 421.31 887.08 352.08   Q 828.51 204.20 687.69 130.87   Q 686.68 130.35 687.15 131.38   Q 692.84 144.02 698.74 157.18   Q 699.88 159.74 701.29 162.16   C 703.44 165.87 704.19 168.51 703.27 172.75   Q 701.96 178.81 701.33 183.37   Q 696.45 218.33 691.15 253.03   Q 689.83 261.69 688.15 270.41   A 0.46 0.45 -70.9 0 1 687.50 270.73   C 678.05 266.00 668.94 260.22 659.52 254.33   C 656.05 252.16 652.24 250.65 648.91 248.27   A 3.47 3.46 -70.6 0 1 647.47 245.25   Q 648.63 226.01 649.51 205.88   Q 649.73 200.90 650.30 195.93   C 650.81 191.55 651.82 185.31 648.92 182.57   Q 633.74 168.20 619.38 155.25   C 617.85 153.88 616.83 152.14 615.20 150.87   A 0.41 0.41 0.0 0 0 614.54 151.21   Q 616.19 193.66 617.31 231.59   Q 617.99 254.79 617.13 280.00   Q 614.21 365.69 610.72 444.77   A 0.54 0.53 -7.5 0 1 610.33 445.27   Q 595.45 449.59 580.59 453.32   Q 576.49 454.34 571.99 454.91   Q 571.47 454.98 571.44 454.46   Q 569.42 421.81 568.08 391.21   Q 565.36 328.94 562.13 272.33   A 0.18 0.18 0.0 0 0 561.91 272.16   L 555.61 273.60   Q 555.34 273.67 555.32 273.94   L 543.89 470.91   Q 543.86 471.47 543.31 471.47   Q 523.66 471.68 504.50 471.58   Q 499.33 471.56 493.96 471.28   Q 493.46 471.26 493.46 470.76   L 491.23 274.05   Q 491.23 273.99 491.18 273.96   Q 489.25 272.85 484.27 271.27   Q 484.16 271.23 484.14 271.35   Q 480.09 316.02 475.55 359.55   Q 474.51 369.48 473.69 379.47   C 471.64 404.48 469.72 424.17 467.00 444.84   Q 466.93 445.41 466.36 445.33   L 426.81 439.70   A 0.82 0.81 4.7 0 1 426.10 438.87   C 427.27 376.09 428.69 313.32 429.37 250.54   A 0.44 0.44 0.0 0 0 429.07 250.12   L 425.18 248.72   Q 424.90 248.62 424.85 248.91   Q 414.72 310.56 404.34 372.23   Q 401.85 387.08 397.77 408.15   Q 397.65 408.78 397.02 408.68   C 395.47 408.43 393.96 407.80 392.43 407.50   Q 379.61 404.98 366.28 402.15   Q 361.51 401.14 357.34 399.60   Q 356.81 399.40 356.88 398.84   Q 365.11 325.76 373.44 254.15   C 374.67 243.59 374.85 232.63 377.82 222.23   C 380.91 211.44 384.46 200.56 387.42 189.74   Q 400.14 143.19 412.97 95.83   Q 413.03 95.62 412.82 95.66   Q 353.77 109.02 301.20 137.49   C 223.75 179.44 163.08 246.36 125.28 325.76   Q 103.53 371.45 94.45 421.69   Q 83.78 480.73 88.33 538.79   Q 89.15 549.16 90.57 558.67   Q 92.42 571.14 95.44 584.66   Q 95.67 585.70 95.95 584.68   L 111.96 526.52   Q 112.07 526.09 112.46 525.85   Q 148.85 503.41 185.03 481.21   C 188.60 479.02 191.56 476.51 195.61 475.15   Q 196.28 474.93 196.33 475.63   Z   M 283.14 627.35   C 284.85 622.08 286.94 615.53 285.47 610.14   Q 284.78 607.64 284.64 610.23   C 283.88 624.05 274.78 630.77 262.10 634.07   Q 261.25 634.29 260.54 633.78   C 254.74 629.68 249.75 626.30 242.31 628.54   C 237.70 629.93 233.35 632.21 228.65 633.50   Q 219.08 636.12 208.39 635.95   Q 189.92 635.67 179.07 648.62   C 175.68 652.67 173.82 657.85 170.59 661.95   Q 155.44 681.17 130.55 684.26   A 0.40 0.39 -16.5 0 0 130.24 684.82   Q 140.34 705.96 153.42 725.37   A 0.34 0.34 0.0 0 0 153.99 725.35   C 162.38 711.03 174.55 705.52 190.39 705.42   Q 196.97 705.39 203.76 705.29   Q 227.42 704.94 238.98 684.62   C 242.68 678.10 246.29 671.87 252.48 667.71   C 261.16 661.87 269.39 655.02 266.56 643.24   Q 266.44 642.74 266.76 642.34   Q 267.86 641.02 269.23 640.00   Q 281.75 630.69 296.93 633.47   Q 298.35 633.73 297.28 632.77   C 293.72 629.58 288.69 628.45 283.67 628.13   Q 282.90 628.08 283.14 627.35   Z   M 783.89 656.95   A 0.49 0.49 0.0 0 0 784.10 657.71   L 813.56 669.02   A 0.49 0.49 0.0 0 0 814.22 668.59   L 816.99 617.34   A 0.49 0.49 0.0 0 0 816.12 617.01   L 783.89 656.95   Z   M 755.91 682.38   A 0.50 0.50 0.0 0 0 756.71 682.41   L 774.39 660.27   A 0.50 0.50 0.0 0 0 774.18 659.49   L 729.70 642.11   A 0.50 0.50 0.0 0 0 729.10 642.85   L 755.91 682.38   Z   M 819.78 677.30   A 0.35 0.35 0.0 0 0 819.30 677.61   L 818.34 704.05   A 0.35 0.35 0.0 0 0 818.76 704.40   L 862.51 694.64   A 0.35 0.35 0.0 0 0 862.56 693.97   L 819.78 677.30   Z   M 771.13 715.07   A 0.40 0.40 0.0 0 0 771.37 714.45   L 756.11 691.98   A 0.40 0.40 0.0 0 0 755.47 691.95   L 730.05 723.53   A 0.40 0.40 0.0 0 0 730.45 724.17   L 771.13 715.07   Z   M 812.01 711.16   A 0.31 0.31 0.0 0 0 811.63 710.84   L 780.58 718.03   A 0.31 0.31 0.0 0 0 780.39 718.50   L 808.96 760.87   A 0.31 0.31 0.0 0 0 809.53 760.71   L 812.01 711.16   Z"/>
<path fill="#ffffff" d="   M 213.45 649.32   C 208.99 659.04 192.65 661.42 185.42 654.08   A 0.83 0.81 30.2 0 1 185.21 653.31   Q 185.98 649.96 188.64 647.73   C 195.04 642.37 207.49 641.16 213.32 648.32   A 0.96 0.93 38.6 0 1 213.45 649.32   Z"/>
<path fill="#ffffff" d="   M 229.50 683.80   Q 225.79 692.81 214.44 695.92   Q 213.75 696.11 213.51 695.43   C 209.40 683.80 215.08 671.57 228.05 670.53   A 1.20 1.19 -20.2 0 1 229.10 671.01   C 231.36 674.15 230.89 680.44 229.50 683.80   Z"/>
</svg>